<?xml version="1.0" standalone="no"?>
<!DOCTYPE svg PUBLIC "-//W3C//DTD SVG 20010904//EN"
 "http://www.w3.org/TR/2001/REC-SVG-20010904/DTD/svg10.dtd">
<svg version="1.0" xmlns="http://www.w3.org/2000/svg"
 width="1080.000000pt" height="1080.000000pt" viewBox="0 0 1080.000000 1080.000000"
 preserveAspectRatio="xMidYMid meet">

<g transform="translate(0.000000,1080.000000) scale(0.100000,-0.100000)"
fill="#000000" stroke="none">
<path d="M2513 5863 c-23 -8 -65 -35 -93 -60 -126 -113 -141 -267 -46 -448 29
-53 34 -70 25 -86 -16 -31 -52 -43 -89 -30 -18 6 -36 8 -41 5 -5 -3 -9 -64 -9
-135 l0 -129 28 -12 c15 -7 65 -12 112 -12 110 -1 170 25 240 101 95 104 106
232 31 376 -23 43 -41 92 -41 107 0 35 32 60 77 60 l33 0 0 134 0 134 -31 6
c-53 10 -152 5 -196 -11z"/>
<path d="M6015 5863 c-65 -24 -110 -56 -146 -106 -55 -76 -59 -109 -59 -464
l0 -324 138 3 137 3 3 102 3 102 37 3 37 3 0 120 0 120 -37 3 -38 3 0 54 c0
67 13 101 40 110 48 15 50 4 52 -319 l3 -301 140 0 140 0 3 300 c2 187 -2 325
-8 367 -16 95 -60 163 -130 202 -50 28 -64 31 -160 34 -81 2 -116 -2 -155 -15z"/>
<path d="M8322 5863 c-60 -21 -144 -102 -173 -165 -18 -42 -24 -70 -24 -133 0
-74 4 -87 47 -179 37 -78 45 -103 37 -118 -16 -30 -52 -42 -89 -29 -18 6 -36
8 -41 5 -5 -3 -9 -63 -9 -133 l0 -129 33 -13 c51 -22 183 -18 238 8 64 29 125
87 157 147 22 43 26 64 27 136 0 81 -2 89 -42 169 -24 46 -43 96 -43 112 0 34
32 59 77 59 l33 0 0 134 0 134 -31 6 c-53 10 -152 5 -197 -11z"/>
<path d="M3080 5851 c-77 -24 -148 -90 -168 -160 -19 -61 -16 -497 3 -552 23
-65 59 -105 122 -136 55 -27 66 -28 221 -32 l162 -3 0 136 0 136 -106 0 c-106
0 -144 9 -144 35 0 24 22 30 130 35 l105 5 0 100 0 100 -95 5 c-99 5 -120 11
-120 35 0 25 37 35 134 35 l96 0 0 135 0 135 -157 -1 c-87 0 -169 -4 -183 -8z"/>
<path d="M3770 5851 c-77 -24 -148 -90 -168 -160 -19 -61 -16 -497 3 -552 23
-65 59 -105 122 -136 55 -27 66 -28 221 -32 l162 -3 0 136 0 136 -106 0 c-106
0 -144 9 -144 35 0 24 22 30 130 35 l105 5 0 100 0 100 -95 5 c-99 5 -120 11
-120 35 0 25 37 35 134 35 l96 0 0 135 0 135 -157 -1 c-87 0 -169 -4 -183 -8z"/>
<path d="M4682 5498 c3 -345 4 -365 24 -408 40 -85 102 -129 194 -137 86 -8
152 11 207 61 l47 43 25 -30 c36 -42 115 -77 177 -77 108 0 194 52 241 148
l28 57 0 350 0 350 -140 0 -140 0 -5 -310 c-3 -170 -7 -311 -8 -312 -9 -11
-31 1 -36 20 -3 12 -6 154 -6 315 l0 292 -140 0 -140 0 0 -304 c0 -254 -2
-306 -15 -316 -8 -6 -19 -9 -25 -5 -6 4 -10 111 -10 316 l0 309 -140 0 -141 0
3 -362z"/>
<path d="M6540 5845 c0 -28 373 -915 384 -915 13 0 397 910 389 922 -2 5 -73
8 -156 8 l-153 0 -33 -102 c-18 -57 -36 -107 -40 -111 -4 -4 -13 12 -20 35 -7
24 -22 73 -33 111 l-20 67 -159 0 c-135 0 -159 -2 -159 -15z"/>
<path d="M7580 5851 c-77 -24 -148 -90 -168 -160 -19 -60 -16 -484 3 -548 18
-60 70 -117 134 -147 41 -18 65 -21 206 -21 l160 0 3 133 3 132 -114 0 c-92 0
-117 3 -128 16 -9 11 -10 20 -2 32 8 14 30 18 116 20 l105 3 7 72 c4 40 5 86
3 102 l-3 30 -95 5 c-99 5 -120 11 -120 35 0 25 37 35 134 35 l96 0 0 135 0
135 -157 -1 c-87 0 -169 -4 -183 -8z"/>
</g>
</svg>
