<?xml version="1.0" standalone="no"?>
<!DOCTYPE svg PUBLIC "-//W3C//DTD SVG 20010904//EN"
 "http://www.w3.org/TR/2001/REC-SVG-20010904/DTD/svg10.dtd">
<svg version="1.0" xmlns="http://www.w3.org/2000/svg"
 width="1080.000000pt" height="1080.000000pt" viewBox="0 0 1080.000000 1080.000000"
 preserveAspectRatio="xMidYMid meet">

<g transform="translate(0.000000,1080.000000) scale(0.100000,-0.100000)"
fill="#000000" stroke="none">
<path d="M5125 9890 c-1154 -52 -2234 -617 -2932 -1537 -100 -132 -266 -374
-260 -379 2 -3 23 3 47 11 23 8 46 15 50 15 4 0 -4 -21 -16 -47 -35 -70 -47
-151 -34 -220 11 -60 26 -87 34 -62 2 8 7 48 10 89 6 99 21 140 50 140 38 0
52 22 86 128 99 314 352 540 670 598 81 14 260 19 260 6 0 -4 -24 -18 -52 -32
-105 -48 -229 -194 -274 -322 -19 -55 4 -50 35 7 31 59 161 182 219 208 43 18
142 88 192 134 40 38 174 107 273 141 88 30 118 36 222 40 192 7 310 -30 396
-125 68 -76 86 -162 54 -253 -18 -52 -18 -47 2 -54 27 -11 79 12 93 42 7 15
15 60 18 99 l5 73 36 10 c69 20 192 23 277 7 387 -73 676 -458 559 -742 -14
-33 -25 -64 -25 -69 0 -13 73 3 92 21 9 8 26 37 38 65 l22 50 40 -6 c66 -11
178 -62 250 -116 119 -87 191 -198 230 -353 25 -99 21 -206 -12 -312 -20 -65
-188 -420 -195 -413 -2 2 3 55 11 118 32 254 19 399 -46 488 -16 23 -28 42
-25 42 3 0 23 -16 45 -36 51 -47 51 -30 -1 46 -87 126 -202 199 -329 208 -62
4 -68 3 -84 -19 -18 -27 -21 -71 -6 -100 9 -16 22 -19 80 -19 39 0 70 -2 70
-5 0 -3 -6 -14 -12 -25 -16 -26 1 -42 60 -59 61 -17 117 -71 142 -137 28 -77
27 -216 -5 -414 -38 -234 -31 -337 31 -450 37 -68 154 -192 211 -222 73 -40
175 -55 260 -40 38 7 75 14 83 15 11 1 17 -13 24 -49 22 -131 -81 -273 -200
-274 -48 0 -118 28 -163 66 -35 31 -49 36 -109 41 -81 7 -104 0 -267 -75 -152
-69 -212 -77 -323 -39 -98 34 -175 80 -243 147 -59 59 -98 135 -84 167 4 10 9
54 10 98 1 68 8 96 43 185 54 138 66 190 59 256 -11 109 -87 200 -202 243 -92
35 -255 29 -255 -9 0 -4 32 -10 70 -13 237 -20 347 -213 251 -442 -26 -63 -48
-95 -100 -148 -36 -38 -75 -73 -86 -80 -11 -6 -72 -21 -135 -33 -105 -20 -117
-21 -145 -7 -55 28 -94 63 -121 109 -24 40 -26 53 -21 110 5 70 22 98 63 108
13 4 24 14 24 22 0 15 -14 16 -122 9 -156 -9 -240 -26 -333 -69 -124 -57 -220
-168 -240 -279 -4 -20 -10 -37 -14 -37 -3 0 -17 27 -30 60 -55 137 12 293 173
403 20 14 26 26 26 55 0 64 -45 113 -144 157 -120 53 -219 65 -328 39 -27 -6
-28 -5 -28 34 0 22 -3 47 -6 56 -7 18 -43 21 -77 5 -22 -10 -23 -14 -19 -101
10 -205 -56 -304 -242 -364 -67 -22 -100 -27 -191 -27 -175 0 -233 30 -296
155 -86 170 -87 291 -2 375 24 25 43 52 41 61 -4 24 -65 28 -89 6 -10 -9 -25
-14 -33 -11 -25 10 -75 87 -93 143 -18 58 -43 73 -43 27 0 -42 43 -125 85
-166 32 -31 36 -39 25 -52 -18 -22 -41 -19 -93 16 -79 52 -137 165 -137 266 0
30 -4 43 -14 43 -33 0 -24 -125 14 -200 30 -59 87 -118 147 -152 97 -55 27
-81 -80 -29 -57 28 -112 83 -145 146 -24 45 -27 61 -27 153 l0 102 -36 0 c-58
0 -72 -24 -72 -125 0 -75 4 -92 31 -148 56 -114 166 -191 292 -205 l62 -7 2
-50 c2 -27 6 -59 10 -71 5 -18 0 -23 -36 -33 -93 -28 -158 -143 -144 -257 15
-131 70 -220 202 -329 129 -107 139 -121 138 -198 -1 -34 -8 -82 -16 -107
l-15 -45 -16 37 c-21 50 -66 108 -83 108 -21 0 -28 -22 -11 -32 28 -15 67 -94
74 -146 6 -57 -9 -112 -45 -159 -29 -39 -45 -43 -32 -7 27 71 -7 183 -73 241
-20 17 -58 44 -84 59 -82 47 -130 92 -175 164 -40 65 -68 88 -68 57 0 -21 73
-128 111 -163 19 -17 62 -48 96 -68 115 -68 162 -137 163 -233 0 -72 -24 -125
-75 -168 -51 -41 -57 -43 -49 -11 8 33 -21 141 -53 194 -33 57 -91 122 -109
122 -21 0 -18 -5 29 -63 55 -68 88 -147 95 -224 4 -57 2 -66 -26 -110 -60 -93
-66 -122 -65 -298 1 -89 7 -189 15 -225 13 -64 13 -65 49 -68 59 -5 63 9 45
144 -26 187 -19 330 20 407 14 26 16 26 38 12 33 -22 82 -94 105 -156 57 -152
58 -449 2 -483 -6 -4 5 -30 29 -67 44 -68 76 -146 93 -229 8 -37 11 -157 9
-373 -3 -367 5 -441 65 -567 63 -132 181 -228 434 -355 188 -95 269 -155 499
-370 300 -280 415 -351 757 -468 774 -266 1605 -285 2388 -57 294 86 572 205
865 371 87 49 108 69 73 69 -27 0 -238 55 -328 85 -44 15 -120 46 -170 69
-266 125 -435 277 -536 481 -76 154 -93 229 -93 415 0 182 17 259 89 407 116
238 303 387 569 452 44 11 82 24 85 29 3 5 38 19 76 32 39 12 117 47 175 77
97 51 106 54 115 37 20 -36 131 -147 171 -170 93 -55 149 -68 294 -67 147 0
220 15 361 71 81 32 95 48 52 58 -100 24 -198 114 -228 209 -15 48 -16 74 -10
173 5 64 7 135 6 157 -4 64 -44 139 -106 198 l-56 54 58 12 c135 31 268 131
318 242 52 117 45 256 -21 412 -46 110 -83 161 -116 165 -51 6 -65 -11 -70
-85 -7 -88 -39 -162 -93 -212 -47 -43 -90 -56 -159 -49 -76 9 -96 25 -123 103
-32 90 -100 192 -166 250 -113 100 -291 161 -440 152 -77 -5 -77 -5 -83 21
-35 162 -159 276 -337 312 -88 18 -268 15 -370 -5 -79 -16 -90 -16 -126 -2
-85 34 -167 49 -277 49 l-111 0 50 92 c126 227 157 321 157 471 0 113 -18 191
-65 285 -63 126 -159 221 -290 288 -88 45 -143 61 -250 76 -17 2 -21 13 -27
67 -15 134 -76 255 -189 374 -122 128 -255 200 -429 230 -106 19 -243 15 -342
-9 l-56 -14 -13 30 c-22 53 -99 122 -181 161 -42 20 -85 37 -95 37 -10 1 -40
7 -68 14 -49 14 -50 14 -20 21 17 5 32 11 35 14 11 14 62 31 72 25 7 -4 8 -2
4 4 -4 7 7 13 29 18 19 3 39 11 43 18 4 6 20 20 36 30 16 10 25 13 22 7 -4 -6
-3 -11 3 -11 5 0 13 9 16 20 6 18 8 19 22 5 12 -12 18 -13 29 -4 8 6 14 18 14
25 0 14 12 18 39 15 7 -2 10 2 7 7 -3 6 1 13 10 16 10 4 13 2 9 -7 -4 -6 -1
-5 7 3 7 8 24 14 37 12 15 -2 21 0 17 7 -4 7 1 11 13 11 12 0 21 4 21 10 0 5
7 6 17 3 12 -5 14 -3 8 7 -6 10 -4 12 8 7 19 -7 49 1 44 12 -2 3 4 14 15 24
10 9 18 13 18 7 0 -5 5 -10 10 -10 6 0 10 6 10 14 0 9 7 13 20 11 11 -2 20 1
20 7 0 6 11 8 24 6 18 -4 34 4 61 29 30 29 39 32 56 22 13 -7 19 -7 15 -1 -3
6 8 21 26 33 17 13 29 18 25 13 -3 -6 2 -10 11 -9 29 4 52 17 46 26 -5 8 -1
10 36 13 8 1 14 7 12 14 -1 7 1 11 5 11 5 -1 10 -1 13 1 3 1 16 3 30 6 14 2
30 11 36 19 6 8 14 11 18 7 4 -4 12 1 17 10 5 10 17 14 29 11 14 -4 20 0 20
11 0 10 5 14 10 11 6 -3 10 -2 10 4 0 5 8 8 17 7 9 -2 25 6 35 16 10 10 23 16
28 13 5 -3 11 -1 15 4 3 6 13 7 23 4 9 -3 14 -2 9 2 -7 9 54 36 85 38 9 1 16
6 15 11 -1 6 5 11 13 11 28 2 50 17 50 34 0 14 2 14 10 1 9 -13 10 -13 10 0 0
10 11 15 35 16 20 1 44 9 55 19 10 9 24 14 31 9 7 -4 10 -3 7 2 -3 5 0 15 8
22 10 9 14 10 14 1 0 -7 8 -5 20 6 11 10 20 14 20 10 0 -4 9 0 20 10 10 9 26
15 34 12 9 -4 21 2 30 14 8 12 25 22 39 23 14 0 23 4 21 8 -2 4 0 9 6 13 5 3
10 0 10 -7 0 -9 3 -9 10 2 5 8 10 11 10 7 0 -4 6 -2 14 5 8 7 11 17 8 22 -3 5
2 7 11 3 10 -4 17 -2 17 5 0 7 6 6 16 -2 12 -11 15 -11 12 1 -2 8 4 13 14 13
10 -1 15 2 13 7 -7 10 26 28 41 22 6 -2 16 3 23 11 14 17 2 20 -126 36 -74 8
-146 13 -403 24 -41 1 -147 0 -235 -4z m-335 -574 c0 -3 -4 -8 -10 -11 -5 -3
-10 -1 -10 4 0 6 5 11 10 11 6 0 10 -2 10 -4z m-590 -280 c0 -3 -4 -8 -10 -11
-5 -3 -10 -1 -10 4 0 6 5 11 10 11 6 0 10 -2 10 -4z m1691 -2326 c151 -28 310
-164 398 -337 19 -38 25 -43 55 -43 19 0 42 7 51 16 14 15 12 22 -26 93 -46
83 -96 156 -128 185 -30 28 -27 33 27 40 146 20 247 13 344 -24 103 -38 185
-131 208 -235 6 -27 16 -53 23 -57 7 -4 50 -5 97 -2 165 11 323 -46 435 -160
68 -68 91 -106 153 -252 68 -161 134 -221 253 -231 45 -4 64 -2 84 11 32 21
24 36 -21 36 -19 0 -51 7 -72 16 -36 14 -92 60 -92 75 0 3 31 9 69 11 48 4 89
14 135 36 68 32 150 104 166 147 5 14 13 25 18 25 5 0 19 -33 33 -72 19 -58
24 -94 24 -174 0 -96 -2 -103 -38 -176 -66 -135 -158 -192 -300 -188 -97 4
-110 2 -131 -13 -16 -12 -11 -17 52 -59 38 -26 86 -66 105 -90 63 -77 69 -101
68 -292 -1 -134 2 -181 15 -220 21 -62 89 -133 161 -167 29 -13 52 -27 53 -30
0 -13 -165 -51 -240 -56 -86 -6 -170 11 -252 53 -61 31 -154 122 -183 179 -11
22 -32 57 -47 78 -40 58 -66 136 -98 293 -30 152 -45 191 -94 242 -50 54 -79
65 -121 48 -19 -8 -35 -18 -35 -21 0 -3 24 -29 53 -58 59 -58 76 -102 97 -252
13 -94 41 -183 75 -244 14 -23 25 -47 25 -51 0 -11 -116 -85 -182 -115 -82
-37 -190 -58 -268 -51 -130 11 -259 101 -319 220 -42 86 -38 213 11 314 11 24
18 46 15 49 -4 3 -22 2 -41 -1 -42 -8 -70 -40 -94 -108 -15 -45 -21 -50 -72
-70 -74 -29 -210 -31 -258 -5 -57 31 -110 86 -160 166 -44 71 -47 80 -47 146
-1 91 -31 155 -73 155 -15 0 -37 -7 -49 -15 -21 -15 -21 -15 -2 -52 23 -46 25
-126 4 -177 -16 -38 -90 -126 -106 -126 -5 0 -9 26 -9 58 0 151 -128 282 -276
282 -67 0 -99 -16 -182 -92 -55 -51 -98 -68 -166 -68 -115 0 -234 78 -266 174
-17 53 -9 143 19 196 l22 43 -45 42 c-44 40 -87 117 -101 180 l-7 30 38 -41
c81 -86 190 -149 320 -185 59 -16 98 -20 173 -17 95 3 97 4 218 65 68 34 143
65 168 68 42 7 48 5 86 -30 160 -144 430 -90 531 108 26 52 33 139 16 197 -12
40 -17 45 -47 48 -18 2 -55 -6 -82 -17 -70 -30 -164 -29 -234 4 -114 54 -187
165 -194 293 -3 76 22 214 43 231 12 10 94 28 137 30 15 0 51 -4 80 -9z"/>
<path d="M3171 8265 c-97 -64 -150 -145 -166 -253 -7 -43 20 -105 48 -110 14
-3 17 4 17 35 1 62 33 118 119 201 76 73 81 80 81 120 0 37 -3 42 -23 42 -12
0 -46 -16 -76 -35z"/>
<path d="M3905 8081 c-63 -16 -103 -52 -86 -79 5 -9 30 -2 92 23 46 19 94 35
107 35 12 0 22 5 22 10 0 6 -8 10 -17 10 -10 0 -34 2 -53 5 -19 2 -48 0 -65
-4z"/>
<path d="M4543 7913 c-28 -5 -47 -29 -39 -49 6 -15 18 -16 104 -10 109 7 152
15 152 26 0 16 -167 41 -217 33z"/>
<path d="M2605 7826 c-104 -33 -169 -84 -235 -184 -53 -80 -64 -122 -32 -122
26 0 45 18 76 73 34 59 119 145 191 193 30 20 52 40 49 45 -3 5 -6 9 -7 8 -1
0 -20 -6 -42 -13z"/>
<path d="M3853 7730 c-125 -18 -285 -84 -367 -151 -33 -28 -36 -33 -23 -47 13
-13 23 -9 80 32 98 70 217 122 337 146 57 12 107 23 109 26 6 6 -76 3 -136 -6z"/>
<path d="M1520 7008 c-11 -50 -11 -60 4 -83 14 -21 20 -24 37 -15 28 16 34 38
15 59 -9 9 -22 35 -30 57 l-13 39 -13 -57z"/>
<path d="M2513 1803 c-23 -8 -65 -35 -93 -60 -126 -113 -141 -267 -46 -448 29
-53 34 -70 25 -86 -16 -31 -52 -43 -89 -30 -18 6 -36 8 -41 5 -5 -3 -9 -64 -9
-135 l0 -129 28 -12 c15 -7 65 -12 112 -12 110 -1 170 25 240 101 95 104 106
232 31 376 -23 43 -41 92 -41 107 0 35 32 60 77 60 l33 0 0 134 0 134 -31 6
c-53 10 -152 5 -196 -11z"/>
<path d="M6015 1803 c-65 -24 -110 -56 -146 -106 -55 -76 -59 -109 -59 -464
l0 -324 138 3 137 3 3 102 3 102 37 3 37 3 0 120 0 120 -37 3 -38 3 0 54 c0
67 13 101 40 110 48 15 50 4 52 -319 l3 -301 140 0 140 0 3 300 c2 187 -2 325
-8 367 -16 95 -60 163 -130 202 -50 28 -64 31 -160 34 -81 2 -116 -2 -155 -15z"/>
<path d="M8322 1803 c-60 -21 -144 -102 -173 -165 -18 -42 -24 -70 -24 -133 0
-74 4 -87 47 -179 37 -78 45 -103 37 -118 -16 -30 -52 -42 -89 -29 -18 6 -36
8 -41 5 -5 -3 -9 -63 -9 -133 l0 -129 33 -13 c51 -22 183 -18 238 8 64 29 125
87 157 147 22 43 26 64 27 136 0 81 -2 89 -42 169 -24 46 -43 96 -43 112 0 34
32 59 77 59 l33 0 0 134 0 134 -31 6 c-53 10 -152 5 -197 -11z"/>
<path d="M3080 1791 c-77 -24 -148 -90 -168 -160 -19 -61 -16 -497 3 -552 23
-65 59 -105 122 -136 55 -27 66 -28 221 -32 l162 -3 0 136 0 136 -106 0 c-106
0 -144 9 -144 35 0 24 22 30 130 35 l105 5 0 100 0 100 -95 5 c-99 5 -120 11
-120 35 0 25 37 35 134 35 l96 0 0 135 0 135 -157 -1 c-87 0 -169 -4 -183 -8z"/>
<path d="M3770 1791 c-77 -24 -148 -90 -168 -160 -19 -61 -16 -497 3 -552 23
-65 59 -105 122 -136 55 -27 66 -28 221 -32 l162 -3 0 136 0 136 -106 0 c-106
0 -144 9 -144 35 0 24 22 30 130 35 l105 5 0 100 0 100 -95 5 c-99 5 -120 11
-120 35 0 25 37 35 134 35 l96 0 0 135 0 135 -157 -1 c-87 0 -169 -4 -183 -8z"/>
<path d="M4682 1438 c3 -345 4 -365 24 -408 40 -85 102 -129 194 -137 86 -8
152 11 207 61 l47 43 25 -30 c36 -42 115 -77 177 -77 108 0 194 52 241 148
l28 57 0 350 0 350 -140 0 -140 0 -5 -310 c-3 -170 -7 -311 -8 -312 -9 -11
-31 1 -36 20 -3 12 -6 154 -6 315 l0 292 -140 0 -140 0 0 -304 c0 -254 -2
-306 -15 -316 -8 -6 -19 -9 -25 -5 -6 4 -10 111 -10 316 l0 309 -140 0 -141 0
3 -362z"/>
<path d="M6540 1785 c0 -28 373 -915 384 -915 13 0 397 910 389 922 -2 5 -73
8 -156 8 l-153 0 -33 -102 c-18 -57 -36 -107 -40 -111 -4 -4 -13 12 -20 35 -7
24 -22 73 -33 111 l-20 67 -159 0 c-135 0 -159 -2 -159 -15z"/>
<path d="M7580 1791 c-77 -24 -148 -90 -168 -160 -19 -60 -16 -484 3 -548 18
-60 70 -117 134 -147 41 -18 65 -21 206 -21 l160 0 3 133 3 132 -114 0 c-92 0
-117 3 -128 16 -9 11 -10 20 -2 32 8 14 30 18 116 20 l105 3 7 72 c4 40 5 86
3 102 l-3 30 -95 5 c-99 5 -120 11 -120 35 0 25 37 35 134 35 l96 0 0 135 0
135 -157 -1 c-87 0 -169 -4 -183 -8z"/>
</g>
</svg>
